<svg width="121" height="121" viewBox="0 0 121 121" fill="none" xmlns="http://www.w3.org/2000/svg">
<path d="M29.2044 0H41.5839C41.822 0 42.0563 0.0733224 42.2525 0.20863L120.474 53.9392C120.794 54.1599 120.986 54.5235 120.986 54.9139V63.4881C120.986 64.4409 119.918 65.0033 119.133 64.464L28.5347 2.16189C27.5758 1.50198 28.0418 0 29.2044 0ZM34.3884 17.3938L7.97783 0.192756C7.78621 0.065764 7.56283 0 7.33342 0H1.18224C0.528378 0 0 0.530646 0 1.18602V5.56951C0 5.96825 0.201448 6.34545 0.539338 6.56239L29.0559 25.093C29.5948 25.4419 30.3137 25.2994 30.6773 24.771L34.6995 18.9128C35.0105 18.3965 34.9557 17.8133 34.3884 17.3938ZM120.482 76.7751L105.716 66.4282C105.177 66.0488 104.435 66.1856 104.063 66.7261L100.109 72.4857C99.7395 73.025 99.8748 73.7594 100.41 74.1301L119.131 87.044C119.916 87.5845 120.986 87.0221 120.986 86.0666V77.7453C120.986 77.3598 120.799 76.9984 120.482 76.7751ZM46.5067 82.5116L40.6469 78.4808C40.108 78.1111 39.371 78.2475 39.0002 78.7869L11.2898 119.135C10.7494 119.918 11.3117 120.989 12.2646 120.989H20.75C21.1393 120.989 21.5051 120.798 21.7247 120.476L46.7898 83.9792C47.0767 83.4244 46.9863 82.9338 46.5067 82.5116ZM47.0022 48.7638L1.85197 17.712C1.06734 17.1704 0 17.7328 0 18.6883V27.1771C0 27.5675 0.191622 27.9334 0.512504 28.1529L33.8699 51.0966C34.4092 51.4662 34.5471 52.2043 34.1775 52.7433L0.206362 102.189C0.0718107 102.386 0 102.62 0 102.859V111.739V115.601C0 116.766 1.50312 117.231 2.15811 116.268L47.2815 50.2035C47.5854 49.6789 47.4448 49.1199 47.0022 48.7638ZM74.2987 78.8954L119.133 109.722C119.918 110.259 120.986 109.697 120.986 108.746V100.237C120.986 99.8468 120.794 99.4821 120.474 99.2625L71.9743 65.9354C71.4365 65.5646 70.6983 65.7037 70.3287 66.2404L34.0018 119.135C33.4624 119.918 34.0248 120.989 34.9754 120.989H43.4615C43.8508 120.989 44.2156 120.798 44.4351 120.476L72.8149 79.1531C73.2212 78.6554 73.7424 78.559 74.2987 78.8954Z" fill="black"/>
</svg>
